<?xml version="1.0" standalone="no"?>
<!DOCTYPE svg PUBLIC "-//W3C//DTD SVG 20010904//EN"
 "http://www.w3.org/TR/2001/REC-SVG-20010904/DTD/svg10.dtd">
<svg version="1.0" xmlns="http://www.w3.org/2000/svg"
 width="1600.000000pt" height="1202.000000pt" viewBox="0 0 1600.000000 1202.000000"
 preserveAspectRatio="xMidYMid meet">

<g transform="translate(0.000000,1202.000000) scale(0.100000,-0.100000)"
fill="#000000" stroke="none">
<path d="M10546 10978 c-8 -13 -32 -63 -52 -113 -36 -88 -67 -135 -88 -135 -6
0 -93 42 -194 93 l-184 92 -107 -1 c-125 0 -223 -25 -345 -86 -98 -48 -204
-131 -221 -172 -28 -67 21 -207 92 -265 46 -38 154 -84 393 -166 218 -75 261
-92 366 -141 143 -66 374 -206 442 -268 35 -31 52 -70 52 -116 0 -70 -37 -98
-257 -195 -208 -92 -246 -100 -283 -62 -11 12 -74 141 -139 287 -169 377 -186
413 -205 429 -12 10 -33 12 -79 8 -129 -12 -270 -78 -393 -183 -47 -41 -90
-74 -95 -74 -5 0 -69 25 -142 56 -283 121 -495 177 -730 193 -555 40 -1071
-165 -1634 -650 -56 -49 -115 -95 -132 -103 -39 -20 -212 -36 -398 -36 -187 0
-337 24 -489 78 -255 91 -398 186 -631 418 -187 185 -226 212 -368 258 -44 14
-132 35 -195 47 -106 20 -154 22 -611 26 -558 6 -521 10 -533 -72 -5 -28 -20
-61 -41 -89 -62 -81 -69 -112 -35 -146 18 -18 34 -20 167 -20 119 0 155 -4
185 -18 20 -9 99 -78 175 -152 322 -314 528 -467 828 -611 159 -76 265 -113
451 -159 209 -51 262 -71 559 -215 289 -139 325 -158 389 -211 34 -28 79 -74
99 -101 43 -59 201 -334 293 -510 97 -185 89 -211 -77 -263 -154 -49 -152 -49
-243 125 -258 493 -595 779 -1066 904 -433 115 -945 41 -1315 -189 -335 -209
-596 -552 -704 -925 -48 -168 -56 -231 -56 -455 0 -180 4 -234 22 -330 64
-335 206 -606 437 -835 142 -141 251 -217 451 -315 252 -123 427 -169 685
-177 228 -7 429 25 634 102 222 84 452 242 617 426 93 104 118 136 208 271 39
59 81 114 93 122 28 20 43 11 138 -77 87 -81 151 -124 235 -158 l60 -24 1060
2 c583 1 1242 6 1464 11 375 9 406 12 430 30 37 27 37 61 2 188 -56 202 -73
307 -78 494 -8 257 28 429 119 584 88 149 238 269 238 191 0 -14 -13 -91 -29
-172 -36 -184 -45 -311 -32 -479 30 -391 181 -729 445 -998 249 -254 533 -417
861 -494 100 -24 130 -26 320 -27 223 0 312 11 480 60 249 72 475 207 670 400
354 350 530 774 512 1230 -3 77 -13 181 -21 232 -84 498 -424 966 -860 1185
-151 76 -287 118 -521 163 -207 39 -218 46 -170 103 29 34 31 64 10 116 -15
36 -15 37 11 61 14 13 35 27 46 31 48 15 139 77 153 104 33 63 22 98 -69 227
-87 123 -245 329 -451 587 -215 272 -337 430 -360 466 -35 56 -43 96 -50 245
-7 163 -16 203 -57 267 -58 91 -121 123 -152 76z m-5709 -2789 c257 -50 452
-156 628 -341 81 -85 175 -214 211 -291 32 -68 20 -74 -284 -136 -195 -40
-312 -65 -457 -96 -66 -14 -174 -37 -240 -50 -172 -35 -192 -42 -198 -67 -3
-12 3 -64 14 -117 11 -53 26 -130 35 -171 8 -41 21 -85 29 -97 18 -27 13 -27
265 -13 102 6 309 17 460 25 151 9 302 17 335 19 67 4 102 -6 111 -29 15 -37
-84 -264 -173 -398 -202 -304 -567 -490 -963 -490 -174 0 -312 33 -472 113
-115 57 -198 120 -314 235 -164 162 -253 316 -306 534 -29 117 -31 358 -5 479
50 229 144 407 301 570 193 201 438 316 725 341 106 10 166 6 298 -20z m6772
1 c298 -60 563 -238 726 -485 103 -157 157 -302 182 -495 87 -668 -445 -1271
-1122 -1273 -302 -1 -568 105 -790 314 -97 93 -150 158 -210 265 -99 173 -145
351 -145 558 0 436 242 824 637 1021 90 44 224 89 318 104 98 17 301 12 404
-9z m-4999 -1322 c32 -17 50 -35 67 -68 25 -49 31 -128 11 -148 -9 -9 -72 -12
-224 -12 -240 0 -229 -4 -218 84 5 39 45 135 57 136 1 0 20 7 42 15 23 8 78
14 130 15 75 0 99 -4 135 -22z"/>
<path d="M3027 4152 c-59 -59 -110 -110 -113 -114 -4 -4 1 -24 11 -44 24 -50
18 -77 -64 -283 -89 -225 -155 -395 -292 -756 -60 -159 -116 -306 -124 -325
-7 -19 -25 -64 -38 -100 -100 -266 -108 -278 -214 -326 -55 -25 -73 -38 -73
-53 0 -37 30 -41 275 -41 202 0 239 2 261 16 l25 17 -22 23 c-13 14 -44 28
-78 35 -111 24 -147 59 -139 133 3 24 41 144 86 267 44 123 83 234 86 245 4
12 16 30 27 40 20 18 42 19 360 19 300 0 340 -2 355 -16 25 -26 206 -527 208
-576 2 -63 -29 -89 -127 -108 -97 -19 -119 -30 -115 -58 l3 -22 376 -3 c326
-2 378 0 389 13 17 20 0 40 -48 56 -49 15 -95 51 -120 91 -11 18 -77 179 -147
358 -69 179 -137 352 -150 385 -13 33 -49 125 -80 205 -31 80 -74 190 -95 245
-37 93 -143 366 -255 653 -26 67 -50 124 -54 127 -4 2 -55 -44 -114 -103z m22
-436 c35 -94 79 -211 185 -490 42 -109 76 -205 76 -211 0 -7 -7 -16 -16 -19
-9 -3 -150 -6 -315 -6 -291 0 -299 1 -299 20 0 21 261 744 287 793 14 27 15
28 33 12 10 -9 32 -54 49 -99z"/>
<path d="M1184 4216 c-201 -57 -337 -186 -401 -380 -22 -68 -26 -98 -26 -191
1 -229 87 -381 281 -494 37 -21 158 -78 270 -126 248 -106 317 -144 384 -209
75 -74 103 -140 102 -246 0 -76 -3 -92 -33 -149 -73 -141 -205 -235 -357 -252
-228 -26 -421 59 -539 237 -39 58 -87 186 -100 264 -13 79 -41 114 -62 77 -9
-16 -12 -99 -13 -298 0 -269 4 -339 20 -339 5 0 25 23 45 50 50 68 68 71 168
26 157 -69 278 -96 432 -96 408 0 652 193 696 551 34 284 -88 448 -441 592
-340 140 -425 182 -491 244 -29 27 -62 73 -82 112 -30 62 -32 71 -32 181 0
108 2 119 30 175 87 173 286 268 475 224 78 -18 169 -68 225 -125 64 -64 141
-213 175 -339 44 -160 44 -160 68 -163 l22 -3 0 295 c0 290 0 296 -20 296 -11
0 -37 -9 -57 -20 -56 -30 -51 -31 -196 48 -32 18 -97 44 -144 57 -116 34 -280
34 -399 1z"/>
<path d="M8440 4220 c0 -6 -78 -10 -218 -10 -162 0 -223 -3 -236 -13 -16 -12
-16 -14 2 -30 11 -10 47 -22 82 -27 71 -10 107 -30 121 -67 16 -42 7 -1802 -9
-1830 -19 -34 -64 -53 -124 -53 -64 0 -81 -10 -76 -41 l3 -24 373 -3 c259 -1
379 1 394 9 20 11 20 11 1 30 -12 13 -45 24 -89 30 -85 14 -119 31 -144 72
-19 30 -20 53 -20 407 0 206 4 380 8 386 13 20 42 23 98 13 149 -28 302 -146
450 -349 60 -82 151 -236 243 -411 44 -86 89 -164 100 -173 16 -14 46 -16 257
-14 231 3 239 4 239 23 0 15 -11 23 -45 33 -159 47 -196 79 -298 259 -142 250
-252 416 -376 567 -31 38 -56 76 -56 86 0 12 17 25 53 39 129 54 227 118 276
180 92 116 127 278 98 446 -31 172 -102 273 -238 338 -159 76 -287 101 -584
116 -116 6 -227 13 -247 16 -22 3 -38 1 -38 -5z m514 -104 c128 -50 202 -119
249 -231 55 -133 60 -299 12 -441 -52 -155 -147 -244 -310 -289 -80 -22 -368
-33 -390 -15 -13 11 -15 70 -15 444 0 399 2 434 19 472 19 41 58 77 96 87 11
3 76 4 145 3 106 -3 135 -8 194 -30z"/>
<path d="M11516 4220 c-260 -4 -300 -7 -309 -21 -17 -26 -1 -47 40 -54 73 -11
126 -38 148 -75 20 -34 20 -49 23 -850 2 -448 0 -843 -3 -878 -9 -86 -43 -126
-123 -143 -31 -6 -68 -18 -80 -26 -23 -14 -23 -15 -6 -34 16 -18 34 -19 305
-19 206 0 290 -3 295 -11 10 -17 510 -3 634 17 175 29 336 98 480 205 184 137
292 312 350 568 30 133 30 382 0 531 -52 254 -161 429 -363 581 -148 112 -315
179 -505 204 -116 15 -256 16 -886 5z m814 -74 c123 -29 264 -103 353 -186
121 -113 189 -227 240 -406 84 -290 81 -571 -9 -810 -114 -305 -302 -482 -583
-553 -71 -18 -115 -21 -271 -21 -176 0 -189 1 -231 23 -29 16 -54 40 -74 72
l-30 48 -9 825 c-8 760 -7 829 8 878 21 66 57 111 111 136 36 17 59 18 230 15
132 -3 213 -9 265 -21z"/>
<path d="M6653 4213 c-337 -2 -613 -7 -613 -11 0 -14 43 -50 72 -61 15 -6 43
-10 62 -9 43 2 83 -24 93 -60 5 -15 8 -428 8 -918 0 -876 0 -892 -20 -914 -30
-33 -54 -43 -119 -49 -66 -7 -93 -29 -66 -55 13 -11 144 -15 803 -19 717 -4
790 -3 807 12 14 11 27 51 45 141 13 69 36 181 50 249 26 130 24 154 -16 144
-11 -3 -71 -74 -135 -158 -127 -170 -193 -236 -271 -272 -48 -22 -72 -25 -255
-33 -317 -13 -421 -9 -455 16 -63 46 -63 48 -63 492 0 275 4 410 11 424 11 20
16 20 201 13 205 -7 228 -11 294 -50 58 -34 91 -86 134 -209 23 -68 40 -101
50 -101 13 0 15 52 17 395 3 478 -3 504 -71 302 -36 -108 -65 -155 -119 -196
-44 -34 -92 -43 -305 -57 -144 -9 -185 -9 -197 1 -13 11 -15 74 -15 451 l0
439 25 16 c21 14 60 15 312 12 284 -4 289 -4 356 -31 120 -47 180 -100 305
-268 69 -93 86 -109 118 -109 16 0 19 42 5 86 -5 16 -32 101 -60 190 -28 88
-57 169 -65 180 -17 22 21 22 -923 17z"/>
<path d="M10070 4202 l-22 -17 21 -19 c15 -14 43 -21 97 -26 67 -5 79 -9 100
-33 l24 -28 2 -822 c1 -903 0 -994 -13 -1019 -15 -27 -47 -40 -121 -48 -43 -5
-76 -14 -88 -25 -19 -17 -19 -18 3 -34 20 -14 62 -15 392 -11 368 5 370 5 373
26 4 26 -39 44 -103 44 -56 0 -103 17 -118 44 -16 28 -23 1776 -7 1835 14 51
40 67 129 74 83 7 114 25 95 55 -10 16 -43 17 -376 20 -338 2 -367 1 -388 -16z"/>
<path d="M4221 4196 c-15 -18 -4 -45 23 -51 11 -2 49 -6 84 -8 107 -6 97 92
100 -937 3 -974 4 -949 -50 -984 -14 -9 -47 -18 -74 -22 -102 -11 -115 -22
-73 -60 19 -17 46 -19 369 -22 l348 -4 18 27 c15 23 15 28 3 36 -8 5 -21 9
-29 9 -122 5 -164 18 -186 61 -19 38 -21 878 -2 897 14 14 166 16 308 3 201
-18 280 -90 325 -297 10 -43 22 -88 28 -98 9 -19 10 -19 23 -1 11 15 14 100
14 444 0 431 -4 478 -35 437 -7 -10 -19 -41 -25 -70 -32 -156 -95 -256 -180
-290 -46 -18 -221 -36 -362 -36 -86 0 -98 2 -108 19 -13 26 -14 830 0 865 l10
26 279 0 c166 0 302 -5 333 -11 138 -29 234 -103 376 -289 48 -63 95 -116 104
-118 41 -8 36 30 -33 252 -37 120 -74 223 -81 227 -7 5 -347 9 -754 9 -617 0
-743 -2 -753 -14z"/>
<path d="M13580 4201 c0 -24 55 -60 98 -66 99 -13 124 -29 136 -87 3 -17 6
-417 6 -890 0 -725 -2 -864 -14 -893 -20 -47 -69 -75 -132 -75 -60 0 -89 -17
-80 -47 4 -12 17 -24 29 -27 12 -3 371 -6 798 -6 725 0 778 1 798 18 16 14 29
61 66 243 39 198 53 299 41 299 -31 0 -68 -31 -106 -88 -134 -202 -223 -295
-330 -346 -62 -29 -73 -31 -230 -36 -91 -3 -229 -6 -307 -6 -127 1 -144 3
-170 22 -58 43 -58 41 -58 496 0 296 3 420 11 428 17 17 396 -5 455 -25 79
-28 113 -75 169 -229 62 -171 65 -160 68 293 2 384 -1 433 -28 416 -5 -3 -21
-42 -36 -88 -38 -116 -67 -170 -114 -210 -53 -45 -92 -53 -317 -68 -145 -9
-186 -9 -198 1 -13 11 -15 73 -15 449 0 257 4 442 10 451 8 13 50 15 261 18
293 3 364 -5 465 -53 89 -43 158 -105 228 -203 70 -99 115 -149 144 -157 19
-5 22 -3 22 20 0 48 -114 418 -136 440 -14 13 -104 15 -775 15 -419 0 -759 -4
-759 -9z"/>
<path d="M6013 1493 c-35 -8 -63 -19 -63 -24 0 -5 3 -8 8 -8 39 6 40 -10 11
-133 -18 -75 -24 -88 -37 -83 -82 33 -120 28 -184 -25 -75 -62 -119 -211 -85
-292 35 -83 123 -92 190 -17 l37 42 0 -31 c0 -50 60 -79 109 -52 19 9 51 77
51 105 0 30 -20 14 -30 -26 -10 -37 -33 -59 -47 -45 -3 3 22 126 57 273 35
148 66 283 70 301 9 37 8 37 -87 15z m-91 -279 c10 -20 8 -42 -5 -107 -22
-105 -60 -183 -98 -202 -26 -14 -30 -14 -49 5 -50 50 4 276 77 319 32 19 63
13 75 -15z"/>
<path d="M12353 1493 c-35 -8 -63 -19 -63 -24 0 -6 4 -8 9 -5 5 3 14 -1 21 -8
9 -12 7 -36 -10 -113 -11 -53 -22 -99 -24 -100 -1 -2 -20 4 -43 13 -129 51
-264 -107 -254 -299 2 -41 60 -97 100 -97 40 0 83 22 110 56 16 20 21 23 21
10 0 -25 46 -66 74 -66 41 0 76 39 83 90 6 53 -8 46 -27 -12 -12 -41 -40 -52
-40 -17 0 12 4 38 10 58 5 20 18 74 29 121 71 303 91 392 91 400 0 12 -9 12
-87 -7z m-107 -261 c20 -14 22 -39 9 -113 -24 -139 -89 -244 -136 -219 -25 14
-33 49 -27 123 11 131 97 248 154 209z"/>
<path d="M13263 1493 c-35 -8 -63 -19 -63 -24 0 -5 3 -8 8 -8 39 6 40 -8 11
-135 l-22 -93 -36 19 c-114 59 -261 -88 -261 -261 0 -51 26 -103 61 -121 39
-21 100 -6 137 34 38 43 42 44 42 12 0 -52 79 -74 118 -33 33 35 55 107 32
107 -5 0 -14 -17 -20 -39 -5 -21 -17 -44 -25 -51 -26 -22 -29 15 -7 103 12 45
30 123 42 172 11 50 30 128 41 175 40 171 38 160 20 159 -9 -1 -44 -8 -78 -16z
m-89 -286 c7 -20 4 -51 -13 -121 -34 -144 -90 -216 -138 -181 -15 11 -18 28
-17 92 1 128 67 249 133 241 18 -2 29 -12 35 -31z"/>
<path d="M11846 1448 c-21 -30 -20 -54 4 -78 41 -41 110 -13 110 46 0 51 -84
75 -114 32z"/>
<path d="M2949 1422 c-155 -57 -247 -171 -257 -318 -5 -84 7 -127 49 -172 48
-51 85 -65 181 -70 77 -4 92 -2 145 22 63 30 113 71 113 95 0 10 -13 2 -35
-21 -55 -56 -98 -73 -192 -73 -76 0 -84 2 -112 29 -102 98 -22 390 132 480 51
30 131 35 178 11 36 -19 69 -70 69 -107 0 -39 18 -35 25 5 3 17 9 53 14 80 5
27 5 50 0 53 -5 3 -9 1 -9 -5 0 -18 -37 -21 -80 -6 -55 19 -163 18 -221 -3z"/>
<path d="M5051 1373 c-5 -21 -14 -54 -18 -73 -7 -28 -15 -36 -36 -38 -35 -4
-35 -22 -1 -22 17 0 24 -4 21 -12 -2 -7 -19 -80 -37 -161 l-33 -148 20 -27
c24 -32 73 -41 107 -18 22 14 52 94 39 106 -3 3 -7 1 -9 -5 -14 -37 -41 -80
-49 -77 -14 4 -10 39 26 200 l32 142 39 0 c21 0 38 5 38 10 0 6 -16 10 -35 10
-32 0 -35 2 -30 23 14 63 25 113 25 120 0 4 -20 7 -45 7 -43 0 -45 -1 -54 -37z"/>
<path d="M7344 1374 c-6 -34 -78 -154 -92 -154 -13 -1 -55 -40 -49 -46 10 -10
65 25 91 58 l25 32 -19 -84 c-61 -272 -100 -438 -109 -461 -5 -15 -22 -36 -37
-48 l-27 -21 104 0 c84 1 101 3 88 13 -8 7 -18 20 -22 30 -8 20 30 197 41 197
4 0 16 -7 26 -15 48 -36 133 -9 196 63 64 72 89 197 56 276 -27 65 -122 74
-182 15 l-32 -31 19 88 c11 49 22 97 25 107 5 15 -2 17 -45 17 -50 0 -50 0
-57 -36z m181 -246 c0 -75 -4 -92 -34 -152 -25 -51 -41 -71 -65 -81 -40 -18
-70 -1 -74 42 -4 41 34 188 61 236 28 50 64 71 92 52 17 -11 20 -24 20 -97z"/>
<path d="M8843 1393 c-4 -9 -11 -42 -18 -72 -10 -50 -14 -56 -38 -59 -33 -4
-36 -19 -4 -24 l23 -3 -33 -145 c-18 -80 -32 -155 -33 -167 0 -47 61 -77 115
-57 20 8 45 56 45 89 0 33 -16 32 -23 -2 -7 -35 -33 -71 -43 -60 -8 8 0 54 42
235 l27 112 38 0 c22 0 39 5 39 10 0 6 -16 10 -35 10 -38 0 -40 5 -26 60 25
96 26 90 -24 90 -33 0 -47 -4 -52 -17z"/>
<path d="M3425 1249 c-119 -59 -185 -222 -129 -318 59 -101 218 -94 310 13 87
102 84 263 -6 308 -47 24 -125 22 -175 -3z m129 -21 c21 -29 21 -133 1 -203
-28 -96 -95 -166 -137 -144 -29 15 -39 46 -39 117 -1 162 116 315 175 230z"/>
<path d="M3768 1256 c-19 -14 -48 -75 -48 -101 0 -29 16 -15 30 27 9 26 22 44
33 46 22 4 24 16 -29 -211 -19 -81 -34 -150 -34 -152 0 -12 91 -4 94 8 2 6 14
57 26 112 38 167 88 250 146 243 26 -3 29 -7 32 -44 2 -22 -9 -84 -23 -138
-27 -107 -30 -138 -15 -166 13 -23 63 -35 90 -20 27 14 60 68 60 98 0 35 -16
26 -29 -18 -6 -21 -16 -42 -22 -46 -27 -16 -26 19 1 126 42 165 40 209 -11
235 -57 30 -131 8 -169 -50 l-20 -30 0 25 c0 41 -27 70 -63 70 -18 0 -40 -7
-49 -14z"/>
<path d="M4336 1255 c-95 -34 -165 -126 -173 -227 -8 -108 46 -168 150 -168
81 0 149 46 192 130 23 45 4 36 -29 -13 -60 -90 -146 -118 -193 -63 -18 21
-23 38 -21 64 3 35 4 36 64 48 104 21 174 67 194 129 29 88 -69 141 -184 100z
m102 -38 c12 -25 12 -35 -2 -71 -9 -24 -28 -53 -41 -66 -26 -25 -115 -53 -128
-40 -12 11 27 113 58 155 49 63 90 71 113 22z"/>
<path d="M4722 1258 c-19 -6 -55 -31 -82 -55 -137 -123 -111 -328 43 -341 85
-7 167 40 208 119 22 45 12 53 -14 10 -9 -15 -35 -45 -57 -65 -33 -30 -48 -36
-83 -36 -65 0 -82 24 -81 114 1 86 30 162 80 206 79 69 153 47 125 -38 -8 -22
-10 -45 -7 -51 12 -18 44 -12 60 11 23 33 20 64 -12 99 -24 26 -35 31 -87 34
-33 2 -75 -1 -93 -7z"/>
<path d="M5355 1257 c-75 -35 -125 -106 -147 -209 -14 -66 -5 -119 27 -155 20
-24 31 -28 75 -28 48 0 54 3 91 42 37 40 39 41 39 18 0 -50 61 -81 109 -55 19
9 51 77 51 105 0 29 -17 14 -29 -26 -11 -36 -34 -59 -47 -47 -2 3 5 48 17 99
49 215 59 263 56 266 -2 1 -14 -8 -27 -22 -29 -30 -56 -32 -86 -4 -28 26 -90
34 -129 16z m117 -42 c16 -36 -8 -165 -46 -239 -90 -178 -175 -29 -91 160 43
97 111 136 137 79z"/>
<path d="M6266 1255 c-78 -28 -148 -121 -161 -216 -9 -61 20 -130 67 -159 51
-31 130 -27 193 9 144 83 183 303 64 363 -40 21 -109 22 -163 3z m121 -35 c49
-98 -35 -340 -119 -340 -89 0 -83 223 10 330 29 34 40 41 66 38 21 -2 34 -11
43 -28z"/>
<path d="M6653 1251 c-47 -22 -73 -62 -73 -113 0 -47 22 -74 88 -107 77 -39
98 -64 86 -99 -5 -14 -21 -32 -34 -40 -29 -15 -103 -10 -125 8 -17 14 -20 56
-5 65 16 10 12 52 -6 59 -30 12 -54 -12 -54 -54 0 -81 79 -126 185 -106 46 9
102 65 111 111 11 60 -10 90 -92 135 -72 41 -91 63 -79 98 10 34 81 54 114 33
8 -5 17 -29 20 -53 5 -38 9 -43 31 -43 20 0 26 6 28 27 5 38 -14 67 -53 84
-46 19 -92 17 -142 -5z"/>
<path d="M7813 1245 c-76 -38 -129 -116 -140 -204 -7 -61 9 -109 47 -146 41
-40 136 -47 197 -17 48 25 109 91 130 141 23 53 22 148 -2 188 -40 67 -141 83
-232 38z m147 -42 c12 -36 12 -54 2 -114 -22 -130 -72 -209 -132 -209 -26 0
-33 6 -47 38 -32 77 6 241 72 307 19 20 34 25 58 23 28 -3 34 -9 47 -45z"/>
<path d="M8173 1258 c-31 -15 -81 -126 -52 -116 7 2 17 18 21 35 8 33 34 60
45 49 7 -7 -2 -55 -47 -250 -11 -50 -20 -96 -20 -103 0 -21 77 -17 88 5 5 9
24 78 41 152 37 158 58 200 99 200 23 0 31 -7 47 -42 23 -49 48 -59 65 -28 28
52 -44 120 -111 105 -16 -4 -39 -19 -53 -35 l-24 -29 -6 25 c-4 14 -18 29 -32
34 -30 12 -33 12 -61 -2z"/>
<path d="M9063 1258 c-31 -15 -70 -118 -45 -118 5 0 14 17 20 39 13 43 36 68
47 52 3 -6 -8 -63 -25 -127 -42 -164 -40 -203 11 -229 57 -30 119 -14 168 45
19 23 20 24 21 5 1 -62 75 -88 118 -42 27 28 46 87 33 100 -6 6 -14 -6 -20
-31 -12 -43 -35 -70 -46 -52 -5 8 56 306 72 348 4 10 -5 13 -43 10 l-49 -3
-16 -75 c-42 -200 -110 -311 -171 -278 -25 12 -23 64 7 176 32 118 32 156 3
176 -26 18 -53 19 -85 4z"/>
<path d="M9824 1256 c-61 -27 -99 -108 -73 -157 16 -31 32 -43 96 -74 65 -32
88 -62 73 -99 -16 -44 -103 -62 -148 -30 -25 17 -28 41 -10 79 9 21 9 29 -4
41 -12 13 -20 14 -36 5 -43 -23 -39 -81 9 -127 28 -26 37 -29 102 -29 60 0 77
4 104 24 38 29 66 93 58 131 -8 34 -27 52 -107 99 -54 31 -63 41 -66 69 -3 28
1 34 32 49 53 25 89 10 97 -40 7 -45 21 -62 44 -54 23 9 29 34 15 66 -22 54
-116 77 -186 47z"/>
<path d="M10225 1257 c-94 -38 -156 -109 -175 -202 -14 -68 -1 -121 40 -160
26 -24 40 -30 93 -33 80 -5 137 23 184 92 37 53 45 89 10 41 -69 -93 -115
-122 -174 -106 -32 8 -65 63 -61 101 3 22 9 26 57 33 157 22 263 145 186 217
-29 28 -112 37 -160 17z m87 -24 c43 -39 4 -143 -65 -173 -71 -30 -97 -33 -97
-12 0 42 35 117 75 158 45 48 59 52 87 27z"/>
<path d="M10635 1257 c-129 -59 -199 -285 -115 -369 48 -48 124 -34 178 32
l21 25 -15 -65 c-22 -98 -62 -172 -104 -192 -46 -22 -73 -22 -100 0 -21 17
-22 22 -12 52 19 52 15 70 -12 70 -30 0 -47 -21 -48 -59 -3 -98 143 -133 256
-61 75 48 87 77 161 398 41 179 43 198 14 160 -25 -33 -50 -35 -88 -7 -36 26
-97 33 -136 16z m113 -29 c40 -40 -24 -272 -89 -320 -55 -41 -90 24 -71 132
25 139 109 239 160 188z"/>
<path d="M10957 1250 c-31 -25 -60 -110 -38 -110 5 0 15 19 23 42 8 27 20 44
32 46 16 4 18 0 12 -35 -4 -21 -16 -67 -27 -102 -10 -35 -22 -87 -25 -117 -6
-50 -5 -55 24 -83 51 -52 119 -42 178 26 l31 35 0 -30 c0 -41 19 -62 55 -62
45 0 65 15 83 64 24 61 13 82 -12 25 -12 -26 -26 -50 -32 -53 -20 -13 -12 53
24 208 19 82 35 150 35 152 0 2 -20 4 -45 4 -41 0 -45 -3 -51 -27 -22 -102
-56 -218 -73 -250 -33 -64 -80 -98 -113 -81 -25 12 -23 53 7 168 32 122 32
164 3 184 -30 22 -60 20 -91 -4z"/>
<path d="M11413 1260 c-27 -11 -51 -46 -59 -88 -9 -47 9 -39 26 11 9 24 21 42
30 42 20 0 17 -22 -26 -205 -19 -80 -34 -149 -34 -153 0 -4 21 -7 47 -5 l47 3
32 139 c46 195 61 226 110 226 19 0 28 -9 40 -39 16 -41 34 -54 59 -45 19 8
19 53 0 81 -19 27 -77 47 -107 37 -12 -4 -35 -20 -50 -36 -25 -27 -28 -28 -28
-10 0 20 -34 53 -55 51 -5 0 -20 -4 -32 -9z"/>
<path d="M11807 1259 c-21 -12 -47 -67 -47 -99 0 -31 17 -24 24 12 11 55 46
80 46 33 0 -14 -11 -73 -25 -131 -14 -58 -25 -121 -25 -140 0 -85 105 -102
145 -24 16 31 20 80 7 80 -4 0 -13 -20 -20 -45 -7 -28 -18 -45 -27 -45 -21 0
-19 25 14 168 15 68 26 135 23 148 -8 46 -71 69 -115 43z"/>
<path d="M12611 1260 c-73 -31 -120 -92 -147 -188 -20 -73 -13 -141 21 -180
20 -23 31 -27 75 -27 48 0 54 3 91 42 32 35 39 39 39 22 0 -51 49 -80 102 -60
34 13 78 121 50 121 -5 0 -14 -18 -21 -41 -11 -36 -34 -59 -47 -46 -3 3 13 85
36 182 23 97 40 179 37 181 -3 3 -14 -6 -25 -20 -24 -31 -58 -33 -88 -5 -25
24 -88 33 -123 19z m107 -32 c26 -26 -3 -185 -49 -269 -61 -111 -134 -67 -114
68 22 145 110 254 163 201z"/>
</g>
</svg>
