<?xml version="1.0" encoding="UTF-8"?>
<svg xmlns="http://www.w3.org/2000/svg" xmlns:xlink="http://www.w3.org/1999/xlink" width="62px" height="24px" viewBox="0 0 61 24" version="1.1">
<g id="surface1">
<path style=" stroke:none;fill-rule:nonzero;fill:rgb(0%,0%,0%);fill-opacity:1;" d="M 40.339844 1.230469 C 40.230469 1.503906 40.085938 1.742188 40.027344 1.742188 C 39.976562 1.742188 39.628906 1.585938 39.253906 1.402344 C 38.238281 0.902344 37.242188 1.003906 36.324219 1.699219 C 35.949219 1.988281 35.878906 2.445312 36.152344 2.847656 C 36.355469 3.144531 36.519531 3.226562 37.960938 3.746094 C 40.035156 4.515625 41.277344 5.34375 41.082031 5.867188 C 40.972656 6.175781 39.285156 6.941406 39.109375 6.769531 C 39.039062 6.695312 38.714844 6.039062 38.378906 5.292969 L 37.757812 3.941406 L 37.382812 3.960938 C 36.957031 3.992188 36.367188 4.269531 35.898438 4.660156 L 35.582031 4.933594 L 34.832031 4.617188 C 33.753906 4.167969 32.890625 3.992188 31.742188 3.984375 C 29.820312 3.972656 28.292969 4.609375 26.25 6.265625 C 25.304688 7.035156 25.316406 7.023438 23.636719 6.972656 C 22.121094 6.933594 20.628906 6.144531 19.398438 4.75 C 18.777344 4.054688 17.539062 3.789062 14.863281 3.789062 C 13.472656 3.789062 13.308594 3.808594 13.257812 3.960938 C 13.226562 4.066406 13.113281 4.320312 13.011719 4.527344 C 12.769531 4.988281 12.832031 5.046875 13.632812 5.066406 L 14.214844 5.089844 L 15.210938 6 C 16.917969 7.554688 17.800781 8.089844 19.683594 8.640625 C 21.105469 9.0625 22.957031 9.921875 23.496094 10.414062 C 23.851562 10.730469 25 12.65625 25.152344 13.167969 C 25.191406 13.289062 25.164062 13.433594 25.089844 13.496094 C 24.867188 13.667969 24.167969 13.824219 24.042969 13.71875 C 23.984375 13.667969 23.75 13.289062 23.527344 12.878906 C 22.945312 11.796875 21.808594 10.660156 20.832031 10.1875 C 17.027344 8.375 12.679688 10.472656 11.835938 14.539062 C 11.652344 15.429688 11.703125 16.75 11.957031 17.632812 C 12.699219 20.160156 14.976562 21.941406 17.648438 22.09375 C 19.925781 22.21875 21.910156 21.203125 23.230469 19.25 C 23.503906 18.859375 23.757812 18.53125 23.808594 18.53125 C 23.851562 18.53125 24.066406 18.6875 24.269531 18.878906 C 25.070312 19.597656 24.808594 19.566406 30.074219 19.554688 C 32.6875 19.546875 35.09375 19.527344 35.429688 19.503906 C 35.765625 19.484375 36.183594 19.464844 36.355469 19.453125 C 36.539062 19.453125 36.703125 19.390625 36.730469 19.320312 C 36.753906 19.25 36.691406 18.851562 36.578125 18.429688 C 36.285156 17.324219 36.296875 15.808594 36.589844 15.039062 C 36.875 14.285156 37.726562 13.390625 37.71875 13.84375 C 37.71875 13.914062 37.667969 14.179688 37.605469 14.4375 C 37.472656 15.03125 37.472656 16.484375 37.605469 17.203125 C 37.800781 18.214844 38.46875 19.421875 39.285156 20.222656 C 40.625 21.53125 41.96875 22.125 43.625 22.136719 C 44.804688 22.148438 45.464844 22.003906 46.410156 21.542969 C 47.703125 20.929688 48.757812 19.84375 49.410156 18.480469 C 50.050781 17.148438 50.191406 15.746094 49.828125 14.3125 C 49.195312 11.835938 47.457031 10.1875 44.90625 9.636719 C 44.417969 9.53125 43.992188 9.417969 43.949219 9.390625 C 43.921875 9.347656 43.941406 9.257812 44.011719 9.175781 C 44.082031 9.09375 44.101562 8.917969 44.074219 8.785156 C 44.023438 8.589844 44.082031 8.519531 44.386719 8.34375 C 44.9375 8.046875 45.027344 7.851562 44.804688 7.445312 C 44.703125 7.25 43.890625 6.152344 43.003906 5.015625 C 42.078125 3.820312 41.367188 2.804688 41.335938 2.632812 C 41.308594 2.46875 41.277344 2.121094 41.277344 1.851562 C 41.277344 1.300781 40.953125 0.726562 40.636719 0.714844 C 40.59375 0.714844 40.464844 0.941406 40.339844 1.230469 Z M 19.742188 11.847656 C 20.484375 12.195312 21.207031 12.808594 21.675781 13.496094 C 22.113281 14.128906 22.050781 14.242188 21.097656 14.4375 C 20.648438 14.527344 19.671875 14.742188 18.929688 14.898438 C 18.066406 15.082031 17.546875 15.234375 17.515625 15.328125 C 17.488281 15.410156 17.527344 15.789062 17.597656 16.15625 L 17.742188 16.84375 L 18.910156 16.792969 C 19.550781 16.769531 20.558594 16.742188 21.148438 16.742188 C 22.367188 16.742188 22.347656 16.710938 21.910156 17.691406 C 21.410156 18.789062 20.179688 19.769531 18.929688 20.066406 C 18.078125 20.273438 16.949219 20.160156 16.214844 19.800781 C 15.351562 19.382812 14.234375 18.234375 13.917969 17.445312 C 13.582031 16.597656 13.582031 15.050781 13.917969 14.230469 C 14.40625 13.035156 15.390625 12.082031 16.601562 11.652344 C 17.007812 11.507812 17.355469 11.46875 18.097656 11.5 C 18.929688 11.519531 19.152344 11.570312 19.742188 11.847656 Z M 45.121094 11.683594 C 47.246094 12.398438 48.515625 14.722656 47.945312 16.84375 C 47.710938 17.722656 47.46875 18.144531 46.726562 18.902344 C 45.75 19.882812 45.191406 20.109375 43.714844 20.121094 C 42.730469 20.121094 42.597656 20.097656 41.976562 19.800781 C 40.167969 18.933594 39.132812 17.066406 39.4375 15.214844 C 39.648438 13.945312 40.300781 12.902344 41.316406 12.183594 C 42.355469 11.46875 43.898438 11.261719 45.121094 11.683594 Z M 25.445312 16.566406 C 25.679688 16.585938 25.945312 17.203125 25.804688 17.375 C 25.730469 17.457031 25.425781 17.507812 24.9375 17.507812 C 24.117188 17.507812 23.972656 17.40625 24.1875 16.933594 C 24.347656 16.578125 24.613281 16.496094 25.445312 16.566406 Z M 25.445312 16.566406 "/>
</g>
</svg>
