<svg id="Capa_1" data-name="Capa 1" xmlns="http://www.w3.org/2000/svg" viewBox="0 0 164 23"><defs><style>.cls-1{fill:#fff;}</style></defs><path class="cls-1" d="M29.22,20.11H24a2.24,2.24,0,0,1-1.66-.67,3.61,3.61,0,0,0-.35-.33c-.15-.13-.26-.12-.38.05-.26.38-.5.77-.79,1.12A6.29,6.29,0,0,1,13,22a6.35,6.35,0,0,1-2.3-1.77,6.19,6.19,0,0,1-1.27-2.92,6.36,6.36,0,0,1,5.45-7.41,6.61,6.61,0,0,1,3.15.33A5.7,5.7,0,0,1,20.59,12a8,8,0,0,1,1.2,1.85,2.12,2.12,0,0,0,.11.21.28.28,0,0,0,.33.13q.35-.09.69-.21a.32.32,0,0,0,.2-.46,3.55,3.55,0,0,0-.21-.44L22,11.42a2.56,2.56,0,0,0-1.15-1.08c-.65-.32-1.29-.64-1.95-.93a6,6,0,0,0-1.09-.35,9.74,9.74,0,0,1-4.67-2.61l-.88-.86a.67.67,0,0,0-.52-.22h-.84c-.23,0-.36-.14-.32-.32a.45.45,0,0,1,.11-.19.9.9,0,0,0,.27-.56c0-.17.1-.24.28-.24,1,0,2,0,3,0a6.24,6.24,0,0,1,2.34.45,1.8,1.8,0,0,1,.59.43,7.52,7.52,0,0,0,1.75,1.53,5.75,5.75,0,0,0,2.67.82,13.17,13.17,0,0,0,1.66-.07A.8.8,0,0,0,23.72,7a14.28,14.28,0,0,1,2.11-1.6,7.93,7.93,0,0,1,3.11-1.16,7.36,7.36,0,0,1,3.39.36c.43.15.85.34,1.27.52A.29.29,0,0,0,34,5.08a2.89,2.89,0,0,1,1.66-.89.35.35,0,0,1,.49.24c.35.76.69,1.53,1,2.3l.1.2a.34.34,0,0,0,.44.17c.49-.21,1-.42,1.45-.66a.51.51,0,0,0,0-.91A10,10,0,0,0,36.2,4c-.42-.13-.83-.28-1.23-.44A1.26,1.26,0,0,1,34.29,3a1.79,1.79,0,0,1-.15-.56.52.52,0,0,1,.16-.33,3.37,3.37,0,0,1,2-.87,1.6,1.6,0,0,1,.86.19c.32.15.62.31.92.48s.31.1.42-.15.18-.44.28-.66S39,.88,39.19,1a1.36,1.36,0,0,1,.46,1c0,.22,0,.44,0,.65a1.42,1.42,0,0,0,.34.89c.83,1,1.65,2.09,2.47,3.14.27.35.52.71.77,1.06a.49.49,0,0,1-.12.74,3.8,3.8,0,0,1-.49.26c-.22.11-.25.16-.15.38s.08.25-.07.41a.67.67,0,0,0-.11.18.72.72,0,0,0,.2.09c.5.11,1,.18,1.49.31a6,6,0,0,1,3.06,2,6.46,6.46,0,0,1,1.48,3.57,6.2,6.2,0,0,1-1.44,4.6A6.42,6.42,0,0,1,35.7,16.22,6.65,6.65,0,0,1,36,14.44a1.23,1.23,0,0,0,0-.33,2.44,2.44,0,0,0-.28.14,2.94,2.94,0,0,0-1,1.84,6.89,6.89,0,0,0,.24,3.06c0,.13.08.25.11.38a.33.33,0,0,1-.34.46l-.78,0-4.65.08Zm8.46-3.86a4.44,4.44,0,1,0,4.46-4.42A4.44,4.44,0,0,0,37.68,16.25ZM15.81,11.81c-.22,0-.41,0-.6.06a4.39,4.39,0,0,0-3.85,4.37,4.06,4.06,0,0,0,1,2.84,4.29,4.29,0,0,0,4.49,1.46,4.39,4.39,0,0,0,3.2-3.06c.1-.28,0-.38-.27-.36l-3.92.21c-.29,0-.35,0-.4-.28l-.24-1.11c0-.25,0-.31.24-.36l1.25-.26,2.93-.62c.22,0,.28-.14.18-.32A4.63,4.63,0,0,0,15.81,11.81ZM23,18v0h.73c.11,0,.17,0,.16-.16a1,1,0,0,0,0-.17.62.62,0,0,0-.55-.6c-.22,0-.44,0-.65,0a.51.51,0,0,0-.48.34,1.64,1.64,0,0,0-.09.44c0,.13.06.18.18.18Z"/><path class="cls-1" d="M107.36,4.05c1.26.08,2.53.11,3.78.26a8,8,0,0,1,2,.57A3,3,0,0,1,115,7.72a3.44,3.44,0,0,1-2.33,3.73l-.52.21c-.18.09-.21.21-.07.37a27.87,27.87,0,0,1,3.21,4.82A2.14,2.14,0,0,0,117.07,18a.44.44,0,0,1,.3.26c0,.22-.18.2-.33.2H114.3a.54.54,0,0,1-.55-.33c-.44-.85-.88-1.7-1.36-2.53a9.91,9.91,0,0,0-2.24-2.83,3.53,3.53,0,0,0-1.89-.86c-.35,0-.45,0-.45.39,0,1.55,0,3.1,0,4.65a.84.84,0,0,0,.79.93c.26.05.53.06.78.13s.18.17.27.26c-.1.06-.2.18-.29.18h-4.82c-.18,0-.34,0-.33-.26s.16-.24.32-.24c1.13.06,1.19-.39,1.2-1.23q0-5.48,0-10.93c0-1-.07-1-1-1.19a1,1,0,0,1-.29,0,1.38,1.38,0,0,1-.26-.23c.1-.07.2-.19.3-.19h2.9Zm.46,4.33h0c0,.91,0,1.82,0,2.74,0,.28.11.44.41.43.61,0,1.23,0,1.84-.08a2.91,2.91,0,0,0,2.57-1.83,4.42,4.42,0,0,0,.09-3A2.69,2.69,0,0,0,111.22,5a4.47,4.47,0,0,0-2.39-.36,1.06,1.06,0,0,0-1,1.16Z"/><path class="cls-1" d="M130.36,18.49h-3.73c-.07,0-.17,0-.22,0s-.2-.15-.22-.23.11-.19.19-.22.43-.09.64-.14a.83.83,0,0,0,.66-.81c0-.13,0-.26,0-.39,0-3.6,0-7.19,0-10.79,0-.87-.2-1.1-1-1.25a.88.88,0,0,1-.29-.07c-.07,0-.16-.15-.15-.21a.4.4,0,0,1,.18-.23s.1,0,.16,0c2.3,0,4.59-.08,6.89-.07a7.39,7.39,0,0,1,5,1.86,6.44,6.44,0,0,1,2.12,4.3,9,9,0,0,1-.31,3.69A6.5,6.5,0,0,1,136,18.11a9.52,9.52,0,0,1-3.31.47h-2.34Zm-.62-7.18h.07c0,1.78,0,3.56,0,5.35a1.42,1.42,0,0,0,1.49,1.49c.46,0,.93,0,1.39,0a5.41,5.41,0,0,0,5.05-3.43,8.72,8.72,0,0,0,.2-6.26,5.34,5.34,0,0,0-4.1-3.85,17.09,17.09,0,0,0-2.49-.14,1.48,1.48,0,0,0-1.62,1.61C129.76,7.81,129.74,9.56,129.74,11.31Z"/><path class="cls-1" d="M142.44,4.2c.32,0,.55,0,.79,0,2.21,0,4.42,0,6.63,0h2.7a.54.54,0,0,1,.6.44c.24.83.51,1.66.75,2.49a1.53,1.53,0,0,1,0,.42,1.37,1.37,0,0,1-.38-.2,8.31,8.31,0,0,1-.73-.93,3.65,3.65,0,0,0-3.24-1.76h-2.93c-.28,0-.4.12-.4.4q0,2.79,0,5.58c0,.23.08.36.33.35.81-.06,1.62-.09,2.43-.16a1.65,1.65,0,0,0,1.39-1.12c.14-.36.23-.73.36-1.09a.84.84,0,0,1,.19-.24c.06.09.16.18.17.27,0,1.72,0,3.44,0,5.15,0,.09-.09.18-.13.27-.06-.08-.15-.14-.18-.23-.16-.4-.28-.81-.45-1.21a1.49,1.49,0,0,0-1.19-1c-.87-.1-1.75-.11-2.63-.15-.23,0-.26.15-.26.33,0,.77,0,1.54,0,2.31,0,.92,0,1.85,0,2.77s.33,1.12,1.1,1.12c1,0,2-.06,3-.06a3.12,3.12,0,0,0,2.42-1.29c.4-.48.73-1,1.1-1.52.07-.1.12-.23.21-.29a1.2,1.2,0,0,1,.35-.12c0,.11.11.22.09.32-.18,1-.38,1.9-.57,2.84l-.06.29a.38.38,0,0,1-.44.38H143c-.21,0-.39,0-.39-.29s.2-.22.37-.23h.29a.83.83,0,0,0,.86-.92c0-1.5,0-3,0-4.49v-7c0-.68-.22-.9-.88-.9A.86.86,0,0,1,142.44,4.2Z"/><path class="cls-1" d="M90.94,4.2c.29,0,.49,0,.69,0H96l5,0c.5,0,.58.06.73.53.25.8.5,1.59.74,2.4a1.23,1.23,0,0,1,0,.42,1.14,1.14,0,0,1-.4-.19,12.75,12.75,0,0,1-.85-1.09,3.55,3.55,0,0,0-3-1.59c-1,0-2,0-3,0-.29,0-.41.12-.41.41q0,2.78,0,5.55c0,.24.07.38.33.37.82-.06,1.63-.09,2.44-.17a1.63,1.63,0,0,0,1.39-1.15c.15-.36.24-.73.37-1.1,0-.07.12-.12.18-.19,0,.08.11.15.15.23a.29.29,0,0,1,0,.13v5a.43.43,0,0,1,0,.16.9.9,0,0,1-.16.18,1.07,1.07,0,0,1-.14-.16c-.11-.32-.21-.64-.32-1a1.82,1.82,0,0,0-1.7-1.37c-.73-.06-1.45-.06-2.18-.09-.23,0-.34.09-.34.33,0,1.73,0,3.45,0,5.18a.93.93,0,0,0,1,1c1.15,0,2.29,0,3.43-.09a2.39,2.39,0,0,0,1.74-.9c.53-.6,1-1.26,1.47-1.9.07-.09.11-.21.19-.27a.64.64,0,0,1,.36-.08s.09.19.08.28c-.21,1.08-.44,2.15-.66,3.23,0,.25-.24.28-.45.28H99.74l-8.11,0a1.06,1.06,0,0,1-.36,0,.39.39,0,0,1-.18-.26.31.31,0,0,1,.18-.22,3.44,3.44,0,0,1,.56,0,.76.76,0,0,0,.76-.79c0-.18,0-.35,0-.53,0-3.65,0-7.3,0-11A1.65,1.65,0,0,0,92.48,5a.68.68,0,0,0-.72-.3C91.42,4.74,91.19,4.57,90.94,4.2Z"/><path class="cls-1" d="M86.87,8.07A1.32,1.32,0,0,1,87,8.4c0,1.87,0,3.74,0,5.61,0,0,0,.05,0,.06l-.17.24c-.05-.07-.13-.13-.15-.21-.09-.36-.16-.73-.26-1.09a1.94,1.94,0,0,0-1.77-1.49c-.44,0-.88-.07-1.32-.09h-.72c-.41,0-.48.06-.48.49V16.6c0,.2,0,.4,0,.59a.75.75,0,0,0,.83.82,3.85,3.85,0,0,1,.59,0c.09,0,.17.11.26.17a2.49,2.49,0,0,1-.23.31s-.15,0-.23,0c-1.45,0-2.9,0-4.35,0a.63.63,0,0,1-.44-.18c-.12-.16,0-.32.19-.35h.09c.91,0,1.16-.25,1.16-1.15V5.43c0-.61-.15-.76-.76-.76a2.24,2.24,0,0,1-.52,0,.39.39,0,0,1-.21-.27c0-.06.12-.17.21-.22a.7.7,0,0,1,.29,0c3.14,0,6.27,0,9.41,0,.5,0,.52,0,.67.48.24.79.49,1.58.72,2.37,0,.17.2.37,0,.5s-.31-.12-.41-.25c-.39-.48-.74-1-1.15-1.45a3.25,3.25,0,0,0-2.44-1.12c-1.08,0-2.16,0-3.24,0-.31,0-.43.1-.43.42,0,1.79,0,3.59,0,5.38,0,.38.07.47.44.45.73,0,1.47-.05,2.2-.12a1.79,1.79,0,0,0,1.61-1.35c.11-.34.18-.68.27-1a2.07,2.07,0,0,1,.15-.34Z"/><path class="cls-1" d="M54.51,18.56a2.58,2.58,0,0,1-.06-.37c0-1.29,0-2.58,0-3.86,0-.12.11-.23.18-.34.08.11.22.2.24.32a6.3,6.3,0,0,0,.75,2.17A3.61,3.61,0,0,0,59,18.16a3.12,3.12,0,0,0,2.33-1.05,2.39,2.39,0,0,0-.37-3.73,7.05,7.05,0,0,0-1.25-.65c-.78-.36-1.59-.67-2.36-1a4,4,0,0,1-2.12-2,4.08,4.08,0,0,1,2.45-5.53A5,5,0,0,1,62,4.77a.81.81,0,0,0,1,0c.34-.23.45-.16.45.27,0,1.12,0,2.24,0,3.37,0,.13.1.36-.15.35A.46.46,0,0,1,63,8.47a7.68,7.68,0,0,0-.91-2.53,3.06,3.06,0,0,0-4.71-.73,2.81,2.81,0,0,0,.5,4.36,25.24,25.24,0,0,0,2.37,1.07c.56.25,1.15.45,1.68.75a3.26,3.26,0,0,1,1.81,3.83,3.86,3.86,0,0,1-3.2,3.31,6.84,6.84,0,0,1-4.41-.48l-.33-.15c-.39-.18-.56-.14-.82.21-.12.15-.22.31-.34.47Z"/><path class="cls-1" d="M71.16,3.78c.07.16.13.27.18.39l4.93,12.66A1.63,1.63,0,0,0,77.54,18c.09,0,.16.18.24.29-.1.05-.2.16-.3.16H72.73c-.2,0-.38-.06-.34-.28s.19-.2.31-.24.57-.08.84-.16a.65.65,0,0,0,.5-.91c-.1-.36-.24-.71-.37-1.06-.28-.78-.57-1.55-.85-2.32a.55.55,0,0,0-.59-.42h-4a.55.55,0,0,0-.59.42c-.37,1.06-.75,2.11-1.12,3.17-.22.62,0,1,.63,1.15a6.55,6.55,0,0,1,.67.18c.11.05.18.18.27.27-.11.08-.22.22-.34.23-.71,0-1.43,0-2.14,0h-1c-.2,0-.39-.05-.37-.27s.18-.24.3-.27a1.63,1.63,0,0,0,1.21-1.06c.63-1.63,1.23-3.27,1.86-4.9.7-1.82,1.4-3.63,2.12-5.44a1.1,1.1,0,0,0,0-1,.24.24,0,0,1,0-.23C70.12,4.8,70.62,4.31,71.16,3.78Zm-1,8.75v0H72c.28,0,.36-.08.26-.36C71.63,10.44,71,8.73,70.34,7a2.07,2.07,0,0,0-.19-.25A1.11,1.11,0,0,0,70,7c-.63,1.71-1.25,3.43-1.87,5.14-.12.32-.08.37.25.37Z"/><path class="cls-1" d="M120,11.32V5.58c0-.72-.16-.89-.88-.93a1.94,1.94,0,0,1-.49-.05,1.05,1.05,0,0,1-.29-.23c.1-.09.19-.25.3-.26.38,0,.77,0,1.15,0h3.5c.1,0,.21,0,.29,0a.36.36,0,0,1,.2.24.31.31,0,0,1-.2.23,4.87,4.87,0,0,1-.76.06.65.65,0,0,0-.68.66c0,.1,0,.2,0,.3V17c0,.74.16.91.9,1a2.24,2.24,0,0,1,.52,0,.24.24,0,0,1,0,.47c-.24,0-.48,0-.72,0h-4s-.12,0-.16,0a2.09,2.09,0,0,1-.29-.23c.09-.09.17-.22.28-.24a4.62,4.62,0,0,1,.65-.06c.52,0,.72-.26.73-.78s0-1.19,0-1.78Z"/></svg>